<?xml version="1.0" standalone="no"?>
<!DOCTYPE svg PUBLIC "-//W3C//DTD SVG 20010904//EN"
 "http://www.w3.org/TR/2001/REC-SVG-20010904/DTD/svg10.dtd">
<svg version="1.0" xmlns="http://www.w3.org/2000/svg"
 width="260.000000pt" height="260.000000pt" viewBox="0 0 260.000000 260.000000"
 preserveAspectRatio="xMidYMid meet">
<metadata>
Created by potrace 1.11, written by Peter Selinger 2001-2013
</metadata>
<g transform="translate(0.000000,260.000000) scale(0.100000,-0.100000)"
fill="#000000" stroke="none">
<path d="M1771 1439 c-118 -23 -221 -76 -275 -140 -88 -104 -97 -269 -21 -379
55 -79 154 -129 371 -185 202 -53 253 -84 254 -153 0 -89 -147 -139 -288 -97
-61 19 -101 64 -109 125 l-6 40 -154 0 -155 0 3 -47 c10 -177 138 -312 339
-357 73 -16 240 -19 315 -5 73 13 158 40 176 56 8 7 20 13 25 13 22 0 103 90
130 145 26 54 29 70 29 160 0 114 -14 153 -82 219 -69 68 -225 130 -428 170
-46 9 -118 42 -139 63 -66 65 4 143 128 143 98 0 183 -56 178 -117 -2 -23 -1
-23 154 -23 l156 0 -5 54 c-18 194 -203 323 -462 324 -49 0 -110 -4 -134 -9z"/>
<path d="M222 840 l1 -590 143 0 144 0 2 366 3 366 42 -78 c50 -92 82 -150
183 -329 40 -72 84 -150 98 -175 13 -25 38 -69 54 -97 l29 -53 158 0 158 0 0
590 0 590 -143 0 -144 0 -2 -361 -3 -362 -55 99 c-30 54 -69 123 -86 154 -17
30 -67 119 -112 198 -45 78 -82 144 -82 146 0 3 -16 32 -36 65 l-36 61 -158 0
-158 0 0 -590z"/>
</g>
</svg>
